<svg width="48" height="49" viewBox="0 0 48 49" fill="none" xmlns="http://www.w3.org/2000/svg">
<rect y="0.5" width="48" height="48" rx="4" fill="white"/>
<path d="M28.6359 15.3373L26.3215 15.3335C23.7213 15.3335 22.041 17.1044 22.041 19.8454V21.9256H19.714C19.5129 21.9256 19.3501 22.0931 19.3501 22.2996V25.3137C19.3501 25.5203 19.5131 25.6875 19.714 25.6875H22.041V33.293C22.041 33.4996 22.2039 33.6668 22.4049 33.6668H25.441C25.6421 33.6668 25.8049 33.4994 25.8049 33.293V25.6875H28.5258C28.7268 25.6875 28.8897 25.5203 28.8897 25.3137L28.8908 22.2996C28.8908 22.2005 28.8524 22.1055 28.7842 22.0353C28.7161 21.9651 28.6232 21.9256 28.5267 21.9256H25.8049V20.1622C25.8049 19.3146 26.0016 18.8843 27.0764 18.8843L28.6355 18.8837C28.8364 18.8837 28.9992 18.7162 28.9992 18.5099V15.7111C28.9992 15.505 28.8366 15.3377 28.6359 15.3373Z" fill="#086CF9"/>
</svg>
