<svg width="20" height="20" fill="none" xmlns="http://www.w3.org/2000/svg">
    <path d="M16.796 3.596a.39.39 0 0 1-.276-.115l-.005-.005a.39.39 0 1 1 .552-.552l.005.005a.39.39 0 0 1-.276.667ZM7.33 8.645c-.186 0-.31.095-.368.286l-.403 1.302-.393-1.24c-.079-.235-.214-.352-.403-.352-.177 0-.303.117-.379.353l-.397 1.239-.403-1.302c-.063-.19-.188-.286-.375-.286a.372.372 0 0 0-.373.379c0 .055.01.108.03.157l.673 1.804c.098.256.25.383.457.383.193 0 .33-.116.408-.349l.369-1.09.369 1.09c.08.233.217.349.407.349.21 0 .362-.127.457-.383L7.68 9.18a.524.524 0 0 0 .028-.157.368.368 0 0 0-.378-.379ZM15.861 8.645c-.187 0-.31.095-.368.286l-.403 1.302-.393-1.24c-.079-.235-.213-.352-.403-.352-.178 0-.304.117-.38.353l-.396 1.239-.404-1.302c-.062-.19-.187-.286-.373-.286a.373.373 0 0 0-.374.379c0 .055.01.108.03.157l.673 1.804c.099.256.25.383.457.383.193 0 .33-.116.408-.349l.369-1.09.368 1.09c.082.233.218.349.408.349.21 0 .362-.127.457-.383l.673-1.804a.5.5 0 0 0 .03-.157.367.367 0 0 0-.108-.27.367.367 0 0 0-.27-.109ZM11.596 8.645c-.187 0-.31.095-.369.286l-.402 1.302-.394-1.24c-.078-.235-.212-.352-.403-.352-.177 0-.303.117-.378.353l-.398 1.239-.403-1.302c-.062-.19-.187-.286-.373-.286a.373.373 0 0 0-.374.379c0 .055.01.108.03.157l.673 1.804c.098.256.25.383.457.383.193 0 .329-.116.408-.349l.368-1.09.369 1.09c.082.233.217.349.407.349.21 0 .363-.127.458-.383l.673-1.804a.492.492 0 0 0 .029-.157.369.369 0 0 0-.378-.379Z" fill="#211F54"/>
    <path d="M18.1 4.136a.39.39 0 0 0-.631.459 9.18 9.18 0 0 1 1.252 2.403c-.935-1.016-2.334-1.853-4.035-2.401-.32-.904-.719-1.715-1.182-2.39a6.683 6.683 0 0 0-.88-1.048 9.163 9.163 0 0 1 2.693 1.308.39.39 0 1 0 .45-.637A9.937 9.937 0 0 0 10 0a9.934 9.934 0 0 0-7.07 2.929A9.934 9.934 0 0 0 0 9.999a9.936 9.936 0 0 0 2.929 7.072A9.933 9.933 0 0 0 9.999 20a9.935 9.935 0 0 0 7.072-2.93A9.935 9.935 0 0 0 20 10c0-2.122-.657-4.15-1.9-5.864Zm-.172 7.036v-.782h1.265c-.196 1.519-1.528 2.927-3.663 3.86a1.43 1.43 0 0 0-.4-.37c.078-.34.146-.689.203-1.042h.93c.918 0 1.665-.747 1.665-1.666Zm-1.014-4.68c1.335.878 2.131 1.973 2.28 3.117h-1.266v-.772c0-.919-.747-1.666-1.665-1.666h-.928a15.492 15.492 0 0 0-.358-1.647c.711.267 1.364.591 1.937.968Zm-2.37.679H10.39V5.649c.45-.13.81-.476.957-.918.955.082 1.874.25 2.729.496.194.611.352 1.264.468 1.944ZM10.39.81c1.108.177 1.945 1.073 2.47 1.839.335.487.635 1.055.891 1.682a15.344 15.344 0 0 0-2.371-.381 1.425 1.425 0 0 0-.99-1.032V.812Zm.249 3.473a.64.64 0 1 1-1.28-.002.64.64 0 0 1 1.28.002Zm-1.03 1.365V7.17H5.456c.115-.68.273-1.333.468-1.944a14.308 14.308 0 0 1 2.728-.496c.147.443.507.789.957.918Zm0-4.837v2.107c-.489.14-.87.535-.99 1.031-.83.07-1.624.2-2.37.382a8.99 8.99 0 0 1 .89-1.682C7.664 1.884 8.5.988 9.609.812Zm-2.238.351a6.69 6.69 0 0 0-.876 1.045c-.463.674-.862 1.485-1.182 2.389-1.697.547-3.094 1.382-4.028 2.395A9.26 9.26 0 0 1 7.37 1.163ZM3.813 12.838h.853c.057.35.125.699.204 1.04a1.435 1.435 0 0 0-.401.372c-2.134-.933-3.466-2.341-3.662-3.86h1.341v.782c0 .919.747 1.666 1.665 1.666ZM2.148 8.837v.772H.806c.149-1.144.945-2.239 2.28-3.117a9.762 9.762 0 0 1 1.936-.968 15.545 15.545 0 0 0-.358 1.647h-.851c-.918 0-1.665.747-1.665 1.666Zm-.861 4.175c.71.771 1.697 1.446 2.912 1.971A1.422 1.422 0 0 0 5.76 16.5c.457.97 1.005 1.757 1.615 2.338a9.26 9.26 0 0 1-6.09-5.826Zm3.688 2.075a.64.64 0 1 1 1.28.002.64.64 0 0 1-1.28-.002Zm4.634 4.1c-1.186-.19-2.299-1.25-3.123-2.98a1.43 1.43 0 0 0 .357-.409c.892.18 1.82.282 2.766.304v3.086Zm0-3.866a15.104 15.104 0 0 1-2.575-.28 1.421 1.421 0 0 0-1.411-1.373 15.41 15.41 0 0 1-.166-.83H9.61v2.483Zm-5.796-3.264a.886.886 0 0 1-.884-.885V8.837c0-.488.397-.885.884-.885h12.45c.488 0 .885.397.885.885v2.335a.886.886 0 0 1-.885.885H3.813Zm10.571 2.39a.64.64 0 1 1 0 1.28.64.64 0 0 1 0-1.28Zm-1.419.593c-.83.166-1.693.26-2.575.281v-2.483h4.152c-.048.281-.103.558-.165.83a1.421 1.421 0 0 0-1.412 1.372Zm-2.575 4.148v-3.086a15.89 15.89 0 0 0 2.766-.303c.092.158.213.297.357.409-.823 1.73-1.936 2.789-3.123 2.98Zm2.234-.35c.61-.581 1.158-1.369 1.614-2.338a1.422 1.422 0 0 0 1.562-1.516c1.215-.525 2.202-1.2 2.913-1.972a9.261 9.261 0 0 1-6.089 5.826Z" fill="#211F54"/>
</svg>
