<svg width="48" height="49" viewBox="0 0 48 49" fill="none" xmlns="http://www.w3.org/2000/svg">
<rect y="0.5" width="48" height="48" rx="4" fill="white"/>
<path d="M32.3291 32.8332V32.8325H32.3333V26.72C32.3333 23.7297 31.6896 21.4263 28.1937 21.4263C26.5132 21.4263 25.3854 22.3485 24.925 23.2228H24.8764V21.7054H21.5618V32.8325H25.0132V27.3228C25.0132 25.8721 25.2882 24.4693 27.0847 24.4693C28.8548 24.4693 28.8812 26.1249 28.8812 27.4159V32.8332H32.3291Z" fill="#086CF9"/>
<path d="M15.9417 21.7061H19.3972V32.8331H15.9417V21.7061Z" fill="#086CF9"/>
<path d="M17.6681 16.1665C16.5633 16.1665 15.6667 17.063 15.6667 18.1679C15.6667 19.2728 16.5633 20.188 17.6681 20.188C18.773 20.188 19.6695 19.2728 19.6695 18.1679C19.6688 17.063 18.7723 16.1665 17.6681 16.1665V16.1665Z" fill="#086CF9"/>
</svg>
