<svg width="48" height="49" viewBox="0 0 48 49" fill="none" xmlns="http://www.w3.org/2000/svg">
<rect y="0.5" width="48" height="48" rx="4" fill="white"/>
<path fill-rule="evenodd" clip-rule="evenodd" d="M15.6667 24.4998C15.6667 21.8589 15.6667 20.5384 16.1108 19.5014C16.6672 18.2022 17.7024 17.167 19.0017 16.6106C20.0387 16.1665 21.3591 16.1665 24.0001 16.1665C26.641 16.1665 27.9615 16.1665 28.9985 16.6106C30.2978 17.167 31.333 18.2022 31.8893 19.5014C32.3334 20.5384 32.3334 21.8589 32.3334 24.4998C32.3334 27.1408 32.3334 28.4613 31.8893 29.4982C31.333 30.7975 30.2978 31.8327 28.9985 32.3891C27.9615 32.8332 26.641 32.8332 24.0001 32.8332C21.3591 32.8332 20.0387 32.8332 19.0017 32.3891C17.7024 31.8327 16.6672 30.7975 16.1108 29.4982C15.6667 28.4613 15.6667 27.1408 15.6667 24.4998ZM24.0001 20.0883C21.5637 20.0883 19.5883 22.0636 19.5883 24.5C19.5883 26.9364 21.5637 28.9118 24.0001 28.9118C26.4365 28.9118 28.4119 26.9364 28.4119 24.5C28.4119 22.0636 26.4365 20.0883 24.0001 20.0883ZM24.0001 27.2574C22.4803 27.2574 21.2428 26.0199 21.2428 24.5C21.2428 22.9791 22.4803 21.7427 24.0001 21.7427C25.52 21.7427 26.7575 22.9791 26.7575 24.5C26.7575 26.0199 25.52 27.2574 24.0001 27.2574ZM29.3306 19.757C29.3306 20.0817 29.0674 20.3449 28.7427 20.3449C28.418 20.3449 28.1548 20.0817 28.1548 19.757C28.1548 19.4323 28.418 19.1691 28.7427 19.1691C29.0674 19.1691 29.3306 19.4323 29.3306 19.757Z" fill="#086CF9"/>
</svg>
