<svg width="29" height="30" viewBox="0 0 29 30" fill="none" xmlns="http://www.w3.org/2000/svg">
<path d="M23.7476 30C23.7373 30 23.727 30 23.7167 30C18.7628 29.8322 12.9593 24.8652 8.96073 20.7266C4.95697 16.5879 0.155053 10.5823 0.000561702 5.48223C-0.0560796 3.69249 4.18977 0.509934 4.23348 0.477922C5.33552 -0.315646 6.55852 -0.0334051 7.06062 0.685699C7.40047 1.17304 10.6189 6.21721 10.969 6.78988C11.3321 7.38379 11.278 8.26795 10.8249 9.1548C10.5751 9.64749 9.74603 11.1549 9.3573 11.858C9.77698 12.4758 10.8867 13.9913 13.1782 16.3615C15.4723 18.7318 16.9348 19.8823 17.5347 20.3164C18.2145 19.9143 19.6718 19.0568 20.1481 18.7984C20.9925 18.335 21.8422 18.2764 22.4216 18.644C23.0138 19.0195 27.8775 22.3645 28.3255 22.6867C28.7014 22.9611 28.9434 23.4298 28.9923 23.9757C29.0387 24.527 28.8739 25.1103 28.5315 25.6189C28.5031 25.6616 25.4624 30 23.7476 30Z" fill="white"/>
</svg>
