<svg width="258" height="240" fill="none" xmlns="http://www.w3.org/2000/svg">
    <path d="M120.459 240c66.528 0 120.459-53.726 120.459-120S186.987 0 120.459 0 0 53.726 0 120s53.931 120 120.459 120Z" fill="#CEE5FF"/>
    <path d="M219.032 39.723 32.731 38.428h-.526c-17.16.164-31.082 14.288-31.204 31.798-.122 17.697 13.879 32.139 31.284 32.245h.308v.091l43.007.085a16.039 16.039 0 0 1 15.955 16.018 16.04 16.04 0 0 1-16.019 15.956l-43.3-.085v15.987l44.782.09a32.87 32.87 0 0 0 21.063-7.582c.286-2.819.695-5.639.116-8.448a6.767 6.767 0 0 1-3.838-.265.301.301 0 0 1-.202-.35c.42-1.954.658-3.93.881-5.915a.255.255 0 0 1 .08-.165h.026a.243.243 0 0 1 .173-.071c.065 0 .127.025.173.071a.206.206 0 0 1 .09.17c.451 1.062.26 2.304.563 3.425.578 2.124 2.68.095 4.035.531.966.297 1.593 1.688 2.065 2.692a10.33 10.33 0 0 0 1.317-.25c.664-.09 1.343-.122 2.007-.165a32.728 32.728 0 0 0 4.55-16.603 33.15 33.15 0 0 0-32.988-33.12l-44.09-.15v-.11h-.16a13.285 13.285 0 0 1-1.062-26.548c.126.046.26.071.393.074h2.538c.207.032.414.053.616.09l26.24.186c0-.032 0-.058-.037-.09l157.306 1.141a1.178 1.178 0 0 0 1.184-1.163l.122-17.09a1.186 1.186 0 0 0-1.147-1.185Z" fill="#133578"/>
    <path d="M121.944 208.524c58.29 0 105.543-9.024 105.543-20.155 0-11.131-47.253-20.155-105.543-20.155-58.29 0-105.543 9.024-105.543 20.155 0 11.131 47.253 20.155 105.543 20.155ZM112.206 127.835l-7.152-6.658-4.938 2.055s-1.885 6.875-1.996 7.035c-.112.159 3.552 6.653 3.552 6.653l3.435 2.941a29.536 29.536 0 0 0 7.598-8.761" fill="#1D53BB"/>
    <path d="m112.248 131.769.34-.531-3.053-2.793-6.754-4.019.627 4.529.499.595a1.304 1.304 0 0 0 1.333-.037c.426-.167.872-.28 1.327-.335.313.037.924.059 1.184.531 0 0 .499.404 1.37 2.251 0 .011 3.175-.6 3.127-.191Z" fill="#133578"/>
    <path d="m102.389 124.171-.277 6.489s1.944.775 3.383 0c0 0 1.332 1.497.499 8.596 0 0-.744.679-.898.78-.154.101-1.762-7.646-1.762-7.646l-3.94-1.162.78-5.841 2.215-1.216Z" fill="#133578"/>
    <path d="M226.032 36.723 39.731 35.428h-.526c-17.16.164-31.082 14.288-31.204 31.799C7.879 84.922 21.88 99.364 39.285 99.47h.308v.09l43.007.086a16.04 16.04 0 0 1 15.955 16.018 16.04 16.04 0 0 1-16.019 15.956l-43.3-.085v15.987l44.782.09a32.872 32.872 0 0 0 21.063-7.582c.286-2.819.695-5.639.116-8.447a6.773 6.773 0 0 1-3.838-.266.3.3 0 0 1-.168-.137.294.294 0 0 1-.034-.213c.419-1.954.658-3.929.881-5.915a.254.254 0 0 1 .08-.165h.026a.244.244 0 0 1 .173-.071c.065 0 .127.025.173.071.027.019.05.044.066.074.015.03.024.063.024.096.451 1.062.26 2.304.563 3.425.578 2.124 2.681.095 4.035.531.966.297 1.593 1.688 2.065 2.692a10.33 10.33 0 0 0 1.317-.25c.664-.09 1.343-.122 2.007-.165a32.727 32.727 0 0 0 4.55-16.602 33.152 33.152 0 0 0-32.988-33.121l-44.09-.15v-.11h-.16a13.284 13.284 0 0 1-1.062-26.548c.126.046.26.071.393.074h2.538c.207.032.414.053.616.09l26.24.186c0-.032 0-.058-.037-.09l157.306 1.141A1.178 1.178 0 0 0 227.057 55l.122-17.092a1.185 1.185 0 0 0-1.147-1.184Z" fill="#34AFBF"/>
    <path d="M226.032 36.723 39.731 35.428h-.526c-17.16.164-31.082 14.288-31.204 31.798-.122 17.697 13.879 32.14 31.284 32.245h.308v.09l43.007.085a16.041 16.041 0 0 1 15.955 16.019 16.04 16.04 0 0 1-16.019 15.956l-43.3-.085v15.987l44.782.09a32.872 32.872 0 0 0 21.063-7.582c.286-2.819.695-5.639.116-8.448a6.764 6.764 0 0 1-3.838-.265.3.3 0 0 1-.168-.137.294.294 0 0 1-.034-.213c.419-1.954.658-3.93.881-5.915a.254.254 0 0 1 .08-.165h.026a.244.244 0 0 1 .173-.071c.065 0 .127.025.173.071.027.019.05.044.066.074.015.03.024.063.024.096.451 1.062.26 2.304.563 3.425.578 2.124 2.681.095 4.035.531.966.297 1.593 1.688 2.065 2.692a10.33 10.33 0 0 0 1.317-.25c.664-.09 1.343-.122 2.007-.165a32.728 32.728 0 0 0 4.55-16.603 33.15 33.15 0 0 0-32.988-33.12l-44.09-.15v-.11h-.16a13.285 13.285 0 0 1-1.062-26.548c.126.046.26.071.393.074h2.538c.207.032.414.053.616.09l26.24.186c0-.032 0-.058-.037-.09l157.306 1.141a1.178 1.178 0 0 0 1.184-1.163l.122-17.09a1.186 1.186 0 0 0-1.147-1.185Z" fill="#0075FF"/>
    <path d="m82.552 131.626-43.3-.085v6.531c3.606 0 7.222-.186 10.806-.478 9.116-.733 18.169-1.912 27.333-1.869 4.004 0 8.081.042 11.99-.967 3.254-.838 6.546-2.373 7.688-5.76.833-2.491 1.061-5.092 2.49-7.365 1.247-1.985 3.292-2.824 5.155-4.088 3.011-2.034 2.124-5.241 1.275-8.246-1.062-3.6-.441-7.874-3.287-10.699-4.184-4.141-11.278-3.631-16.677-3.483-8.05.223-16.173.133-24.207-.446-6.074-.44-12.036.314-18.052.993-5.777.653-11.681 1.253-17.48.276a23.612 23.612 0 0 1-1.953-.414 30.917 30.917 0 0 0 14.952 3.945h.308v.09l43.007.085a16.04 16.04 0 0 1 15.955 16.019 16.041 16.041 0 0 1-16.003 15.961ZM151.083 49.88c-26.309-.25-52.618-.717-78.927-.834-9.993-.042-20.001-.159-29.994-.069-6.902.059-15.227.335-20.898 4.78-2.835 2.234-5.108 6.18-4.248 9.88 1.015 4.216 5.257 6.85 7.21 10.62 1.955 3.77 3.123 7.778 6.404 10.587 3.908 3.345 9.239 3.392 14.076 2.755 5.522-.733 10.523-2.655 15.716-4.55a166.89 166.89 0 0 1 4.587-1.593l-24.97-.037v-.112h-.16a13.285 13.285 0 0 1-1.062-26.547c.126.046.26.071.393.074h2.538c.207.032.415.053.616.09l26.24.186c0-.032 0-.058-.037-.09l157.306 1.141A1.178 1.178 0 0 0 227.057 55l.037-5.554c-25.316.695-50.664.674-76.011.435Z" fill="#0075FF"/>
    <path d="M218.938 36.66a33.838 33.838 0 0 0 .192 19.422h5.84l-.191-19.364-5.841-.059Z" fill="#133578"/>
    <path d="M226.844 58.89c-2.081 0-3.185-1.508-3.78-3.366a40.676 40.676 0 0 1-1.349-9.68 42.653 42.653 0 0 1 1.349-9.726c.605-1.991 1.699-3.367 3.78-3.367 2.076 0 3.775 1.52 3.775 3.367 0 0-.743 5.182-.87 9.71a44.29 44.29 0 0 0 .87 9.707c0 1.837-1.699 3.355-3.775 3.355Z" fill="#1D53BB"/>
    <path d="M229.897 50.475a40.66 40.66 0 0 1-.148-4.657c.127-4.529.87-9.71.87-9.71 0-1.848-1.699-3.367-3.775-3.367-2.081 0-3.185 1.375-3.78 3.366a42.632 42.632 0 0 0-1.349 9.738 34.48 34.48 0 0 0 .345 4.64l7.837-.01Z" fill="#1D53BB"/>
    <path d="M229.897 50.475a40.657 40.657 0 0 1-.148-4.657c.058-2.123.255-4.39.446-6.201h-7.885a37.39 37.39 0 0 0-.595 6.228 34.48 34.48 0 0 0 .345 4.64l7.837-.01Z" fill="#1D53BB"/>
    <path d="M232 45.51c0 6.26-1.062 11.336-2.416 11.336-1.354 0-2.41-5.076-2.41-11.336 0-6.26 1.077-11.346 2.415-11.346S232 39.25 232 45.51Z" fill="#133578"/>
    <path d="M231.081 45.569c0 4.47-.775 8.097-1.725 8.097-.951 0-1.726-3.627-1.726-8.097s.775-8.103 1.726-8.103c.95 0 1.725 3.627 1.725 8.103Z" fill="#0075FF"/>
    <path d="M229.096 52.45c.809 0 1.465-3.08 1.465-6.881 0-3.8-.656-6.881-1.465-6.881-.81 0-1.466 3.08-1.466 6.88 0 3.801.656 6.882 1.466 6.882ZM42.99 131.435a28.068 28.068 0 0 1-.159 16.136h-4.837l.16-16.088 4.837-.048Z" fill="#133578"/>
    <path d="M36.428 149.912c1.726 0 2.655-1.253 3.138-2.798a33.73 33.73 0 0 0 1.12-8.044 35.365 35.365 0 0 0-1.12-8.081c-.53-1.657-1.412-2.798-3.138-2.798-1.73 0-3.138 1.258-3.138 2.798 0 0 .616 4.301.722 8.065a36.55 36.55 0 0 1-.722 8.06c0 1.529 1.407 2.798 3.138 2.798Z" fill="#1D53BB"/>
    <path d="M32.143 138.789c0 5.198.898 9.419 2.002 9.419 1.104 0 2.007-4.248 2.007-9.419 0-5.172-.892-9.42-2.007-9.42-1.115 0-2.002 4.216-2.002 9.42Z" fill="#133578"/>
    <path d="M34.336 145.564c.792 0 1.434-3.012 1.434-6.728 0-3.715-.642-6.727-1.434-6.727-.792 0-1.433 3.012-1.433 6.727 0 3.716.641 6.728 1.433 6.728Z" fill="#0075FF"/>
    <path d="M33.338 138.836c0 3.154.53 5.719 1.216 5.719.685 0 1.237-2.565 1.237-5.719 0-3.153-.531-5.718-1.216-5.718-.685 0-1.237 2.559-1.237 5.718Z" fill="#133578"/>
    <path d="m164.054 36.288 2.989.058s-1.938 5.602.058 19.465l-3.217-.112-2.496-10.427-.663-5.31.833-2.273 2.496-1.401Z" fill="#09808F" style="mix-blend-mode:multiply" opacity=".38"/>
    <path d="M160.305 58.89c-2.081 0-3.185-1.508-3.78-3.366a40.676 40.676 0 0 1-1.349-9.68 42.653 42.653 0 0 1 1.349-9.726c.605-1.991 1.699-3.367 3.78-3.367 2.076 0 3.775 1.52 3.775 3.367 0 0-.743 5.182-.87 9.71a43.923 43.923 0 0 0 .87 9.707c0 1.837-1.699 3.355-3.775 3.355Z" fill="#1D53BB"/>
    <path d="M163.358 50.475a40.65 40.65 0 0 1-.138-4.63c.128-4.53.871-9.711.871-9.711 0-1.848-1.699-3.366-3.775-3.366-2.081 0-3.186 1.375-3.78 3.366a42.58 42.58 0 0 0-1.36 9.711c.01 1.553.125 3.103.345 4.64l7.837-.01Z" fill="#1D53BB"/>
    <path d="M163.358 50.475a40.65 40.65 0 0 1-.138-4.63c.059-2.124.255-4.391.446-6.202h-7.879a37.404 37.404 0 0 0-.611 6.202c.01 1.553.125 3.103.345 4.64l7.837-.01Z" fill="#1D53BB"/>
    <path d="m90.48 35.757 2.994.037s-1.944 5.602.053 19.465l-3.218-.096-2.484-10.412-.664-5.31.833-2.272 2.485-1.412Z" fill="#09808F" style="mix-blend-mode:multiply" opacity=".38"/>
    <path d="M86.763 58.37c-2.082 0-3.186-1.502-3.78-3.366a40.606 40.606 0 0 1-1.37-9.69 42.557 42.557 0 0 1 1.348-9.727c.605-1.997 1.699-3.366 3.78-3.366 2.076 0 3.775 1.513 3.775 3.366 0 0-.743 5.177-.87 9.706a44.252 44.252 0 0 0 .87 9.706c0 1.858-1.699 3.371-3.753 3.371Z" fill="#1D53BB"/>
    <path d="M89.794 49.955a40.589 40.589 0 0 1-.148-4.657c.127-4.529.87-9.706.87-9.706 0-1.853-1.699-3.366-3.775-3.366-2.081 0-3.185 1.37-3.78 3.366a42.555 42.555 0 0 0-1.349 9.722c.01 1.551.126 3.1.345 4.635l7.837.006Z" fill="#1D53BB"/>
    <path d="M89.794 49.955a40.59 40.59 0 0 1-.148-4.657c.058-2.124.254-4.386.446-6.196h-7.885a37.285 37.285 0 0 0-.595 6.212c.01 1.551.126 3.1.345 4.635l7.837.006Z" fill="#1D53BB"/>
    <path d="M71.062 81.419h2.363s3.329 7.465.149 18.11h-4.21l-.819-8.022.15-6.371 2.367-3.717Z" fill="#09808F" style="mix-blend-mode:multiply" opacity=".38"/>
    <path d="M67.17 103.247c2.082 0 3.186-1.503 3.78-3.361a40.682 40.682 0 0 0 1.35-9.69 42.617 42.617 0 0 0-1.35-9.727c-.605-1.997-1.698-3.367-3.78-3.367-2.076 0-3.775 1.513-3.775 3.367 0 0 .744 5.176.871 9.705.07 3.26-.22 6.516-.865 9.712 0 1.847 1.693 3.361 3.77 3.361Z" fill="#1D53BB"/>
    <path d="M64.117 94.836c.14-1.55.189-3.106.149-4.662-.127-4.529-.87-9.705-.87-9.705 0-1.853 1.698-3.367 3.774-3.367 2.082 0 3.186 1.37 3.78 3.367a42.617 42.617 0 0 1 1.35 9.727 34.317 34.317 0 0 1-.346 4.64h-7.837Z" fill="#1D53BB"/>
    <path d="M64.117 94.836c.14-1.55.189-3.106.15-4.662-.06-2.123-.256-4.385-.447-6.196h7.885c.371 2.052.57 4.132.594 6.218a34.317 34.317 0 0 1-.345 4.64h-7.837Z" fill="#1D53BB"/>
    <path d="m204.327 40.785 4.937-.032c.309-.02.619.019.914.111.881.356 1.009 1.657.472 2.443-.536.786-1.476 1.179-2.362 1.53a12.12 12.12 0 0 1-4.004 1.061c-1.391.042-2.883-.478-3.632-1.651-.228-.356-.685-1.062-.578-1.45.18-.69 1.062-1.062 1.699-1.364 1.476-.76 1.332-.744 2.628-.706M127.784 38.63c1.423.058 2.963-.06 4.11.78.207.61-.531 1.104-1.105 1.338a49.248 49.248 0 0 1-12.769 3.186c-3.934.43-8.331.233-11.225-2.47-.371-.344-.722-.918-.403-1.31.195-.185.449-.292.717-.304l4.885-.748c5.247-.503 10.522-.66 15.79-.473ZM13.49 75.095a6.42 6.42 0 0 0 1.254 7.142 3.919 3.919 0 0 0 1.848 1.088 2.793 2.793 0 0 0 1.715-5.31c-.451-.145-.891-.323-1.317-.53a4.178 4.178 0 0 1-1.253-1.593 2.5 2.5 0 0 0-1.482-1.344c-.669-.143-1.486.5-1.237 1.142M87.458 86.32a77.136 77.136 0 0 1 12.212 2.925c2.719.892 5.665 2.198 6.749 4.848.26.642.276 1.593-.372 1.816a1.492 1.492 0 0 1-1.131-.202c-4.221-1.991-8.607-4.003-13.274-4.152-2.915-.096-5.962.53-8.67-.563-1.54-.621-2.974-2.124-2.655-3.717 2.267-2.84 7.433-1.009 10.253-.286" fill="#3592FF"/>
    <path d="M106.164 132.853c3.106-1.492 7.433 1.895 9.105 4.9 1.673 3.005 1.769 6.616 1.806 10.062l.127 11.097c0 2.564.074 5.224 1.184 7.539 1.561 3.25 5.012 5.267 8.549 6.005 3.536.738 7.189-.185 10.778-.531 10.396-1.008 20.967-1.922 31.209.123 1.901.377 3.908.361 5.199 1.815 1.29 1.455 1.417 2.937-.218 3.983a24.816 24.816 0 0 1 11.814 4.906c1.152.886 2.32 2.123 2.123 3.557-.207 1.54-1.826 2.405-3.244 3.021-4.895 2.124-9.828 4.248-15.036 5.427-7.354 1.651-21.106 2.07-28.629 1.725-18.982-.865-27.525 6.191-46.507 5.31-7.088-.324-18.525-7.062-25.523-8.267-3.685-.632-8.102-2.331-8.463-6.058-.33-3.399 3.095-5.952 6.318-7.078 7.572-2.655 15.854-1.593 23.893-1.922a2.787 2.787 0 0 0 1.88-.568 4.786 4.786 0 0 0 .775-1.593c.834-1.917 3.148-2.697 5.235-2.83s4.248.154 6.212-.531c3.945-1.391 5.575-6.032 6.281-10.157a64.523 64.523 0 0 0 .383-19.391c-.367-2.777-.531-5.591-3.34-5.771-1.28-.085-1.917-.027-1.885-.388a14.845 14.845 0 0 0 0-3.154" fill="#0075FF" opacity=".69"/>
    <path d="M105.649 167.333a4.455 4.455 0 0 0-1.099-2.424 4.451 4.451 0 0 0-2.283-1.367 1.695 1.695 0 0 0-1.593.286c-.232.269-.38.599-.425.951a2.072 2.072 0 0 0 .35 1.864c.334.286.743.471 1.179.531 1.239.265 2.499.419 3.765.461M121.917 164.917c-.483-1.158.032-2.522.85-3.473a3.431 3.431 0 0 1 2.251-1.295 1.858 1.858 0 0 1 1.98 1.402 1.985 1.985 0 0 1-.796 1.752 5.865 5.865 0 0 1-1.8.876l-2.336.817M108.144 159.421a3.028 3.028 0 0 0-1.715-3.499 1.989 1.989 0 0 0-1.248-.122 1.214 1.214 0 0 0-.886.829 1.355 1.355 0 0 0 .371 1.21c.312.31.67.568 1.062.765l2.124 1.184" fill="#0075FF"/>
    <path d="M101.932 179.115c4.11-2.273 9.143-.452 13.805-.053 5.118.435 10.194-.93 15.212-2.013a141.69 141.69 0 0 1 30.328-3.186 3.273 3.273 0 0 1 1.964.431c.531.403.749 1.338.207 1.752-.398.302-.987.196-1.412.456-.701.425-.531 1.593.117 2.082.648.488 1.508.573 2.32.674a6.051 6.051 0 0 1 3.112 1.12c.865.706 1.369 1.954.923 2.979a3.807 3.807 0 0 1-1.704 1.593c-10.8 6.339-24.19 5.102-36.636 6.233-9.557.871-18.987 3.25-28.576 3.998-3.382.266-6.828.324-10.125-.488-2.75-.68-5.31-1.943-7.853-3.186-1.593-.775-3.356-1.874-3.42-3.621-.063-1.593 1.482-2.878 3.049-3.255 1.566-.377 3.212-.143 4.82-.255 6.505-.462 11.761-6.53 18.276-6.371" fill="#0075FF" opacity=".83"/>
    <path d="m119.4 183.203-9.196.053a17.822 17.822 0 0 0-3.945.319c-2.718.637-5.044 2.538-7.805 2.999-2.224.367-4.725-.196-6.61 1.062-.38.225-.671.571-.828.983-.41 1.316 1.306 2.235 2.654 2.458 6.659 1.094 13.444-.393 20.033-1.869 3.473-.78 7.03-1.593 10.019-3.526.425-.27.887-.711.728-1.189a1.065 1.065 0 0 0-.531-.531 9.028 9.028 0 0 0-7.189-.849M156.663 181.021l2.193-.361a5.57 5.57 0 0 1 2.612 0c.839.265 1.593 1.062 1.439 1.948-.181 1.158-1.593 1.593-2.751 1.763-4.63.701-9.281 1.242-13.927 1.779a2.764 2.764 0 0 1-1.253-.043.97.97 0 0 1-.695-.94c.053-.424.462-.7.833-.913a27.38 27.38 0 0 1 15.313-3.419" fill="#0075FF" opacity=".71"/>
    <g opacity=".29" stroke="#80ECFF" stroke-width=".75" stroke-linecap="round" stroke-linejoin="round">
        <path d="M177.556 182.911c.802.17 1.641.027 2.448.149.807.122 1.677.663 1.72 1.481.058 1.004-1.062 1.593-1.996 1.959l-9.266 3.483c-1.401.531-2.803 1.062-4.247 1.498a39.16 39.16 0 0 1-11.559 1.763M73.489 182.03c-2.124.047-4.328.111-6.266.998-1.938.887-3.557 2.84-3.371 4.964.014.383.142.752.366 1.062.174.197.383.359.616.478 2.894 1.593 6.786.271 9.59 2.012.567.356 1.061.818 1.592 1.216a8.713 8.713 0 0 0 5.24 1.721"/>
        <path d="M71.95 184.021a7.903 7.903 0 0 0-4.026.127c-1.231.377-2.559 1.482-2.166 2.713.33 1.062 1.593 1.354 2.687 1.503l1.274.181M172.613 184.021a.631.631 0 0 1 .276.655.644.644 0 0 1-.096.231c-.205.273-.48.484-.796.611a80.089 80.089 0 0 1-10.147 4.248"/>
    </g>
    <path d="M108.898 134.843c2.793 1.232 4.327 3.983 5.464 6.691 1.359 3.222.616 7.268.531 10.698 0 .26.387.255.398 0 .117-3.568.871-7.534-.558-10.9-1.184-2.793-2.723-5.559-5.607-6.834-.233-.101-.435.245-.201.345h-.027ZM114.999 162.209c-.245 4.348 2.511 10.731 6.488 12.892 2.039 1.104 4.423 1.146 6.669.881 3.759-.435 7.433-1.301 11.219-1.657.249-.026.255-.424 0-.398a89.054 89.054 0 0 0-6.69.871c-2.878.494-5.867 1.343-8.793.733-5.161-1.062-8.766-8.421-8.495-13.322 0-.255-.382-.255-.398 0Z" fill="#80ECFF" opacity=".3"/>
    <path d="M115.917 171.628c1.105 1.657 1.88 3.388 3.653 4.444 1.774 1.057 3.818 1.28 5.841 1.327a.2.2 0 0 0 .169-.199.201.201 0 0 0-.169-.199c-1.943-.042-3.929-.244-5.628-1.269-1.699-1.024-2.459-2.724-3.515-4.306-.138-.212-.483 0-.34.202h-.011Z" fill="#80ECFF" opacity=".3"/>
    <path d="M101.964 165.357a.6.6 0 0 0 0-1.194.603.603 0 0 0-.388.193.604.604 0 0 0 0 .808c.101.11.239.179.388.193ZM125.029 161.131a.467.467 0 0 1-.441.292.595.595 0 0 0-.387.194.597.597 0 0 0 0 .807c.1.111.238.18.387.194a1.647 1.647 0 0 0 1.471-.887.623.623 0 0 0-.213-.817.602.602 0 0 0-.817.217ZM105.516 157.521a.269.269 0 0 1 .123-.002c.041.01.078.028.111.055.573.531 1.417-.329.844-.845a1.448 1.448 0 0 0-1.062-.403.62.62 0 0 0-.6.6.601.601 0 0 0 .6.595h-.016Z" fill="#82BBFF" opacity=".68"/>
</svg>
