<svg width="40" height="40" viewBox="0 0 40 40" fill="none" xmlns="http://www.w3.org/2000/svg">
<path d="M0 20C0 8.95431 8.95431 0 20 0C31.0457 0 40 8.95431 40 20C40 31.0457 31.0457 40 20 40H0V20Z" fill="#2770F1"/>
<path d="M19.6121 17.5909C19.6121 17.2672 19.6121 17.0662 19.6121 16.8765C19.6121 15.5703 19.6121 14.2754 19.6121 12.9693C19.6121 12.4669 19.8037 12.065 20.2769 11.8194C20.739 11.585 21.1897 11.6185 21.6066 11.9311C24.7956 14.2977 27.9734 16.6532 31.1511 19.031C31.8385 19.5445 31.8385 20.4264 31.1511 20.94C27.9621 23.3289 24.7618 25.6956 21.5616 28.0734C21.1672 28.3637 20.739 28.4195 20.2882 28.1962C19.8262 27.9618 19.6121 27.5599 19.6121 27.0575C19.6008 25.7737 19.6121 24.4899 19.6121 23.2061C19.6121 22.9829 19.6121 22.7596 19.6121 22.4135C19.3755 22.5698 19.2177 22.6815 19.0712 22.7931C16.7386 24.5234 14.4173 26.2538 12.0847 27.9729C11.2621 28.5869 10.3043 28.3302 10.0563 27.4483C10.0113 27.2696 10.0113 27.0799 10.0113 26.9012C10.0113 22.3131 10.0113 17.7137 10 13.1256C10 12.5562 10.1465 12.0874 10.6874 11.8306C11.217 11.5738 11.6903 11.719 12.1523 12.065C14.5976 13.8623 17.0429 15.6708 19.6121 17.5909ZM12.434 24.7244C14.5976 23.1168 16.6823 21.5651 18.812 19.9799C16.6597 18.3835 14.5863 16.8318 12.434 15.2354C12.434 18.4282 12.434 21.5093 12.434 24.7244ZM22.0799 24.7132C24.2322 23.1057 26.3169 21.5651 28.4354 19.9799C26.2831 18.3835 24.2097 16.843 22.0799 15.2578C22.0799 18.4505 22.0799 21.5316 22.0799 24.7132Z" fill="white"/>
</svg>
