<svg width="48" height="49" viewBox="0 0 48 49" fill="none" xmlns="http://www.w3.org/2000/svg">
<rect y="0.5" width="48" height="48" rx="4" fill="white"/>
<path d="M32.75 19.3106C32.1059 19.5839 31.4148 19.7692 30.6887 19.852C31.4301 19.4268 31.9976 18.7525 32.2666 17.9515C31.5711 18.3452 30.8035 18.6311 29.9855 18.786C29.3305 18.1169 28.3988 17.7002 27.3653 17.7002C25.3827 17.7002 23.7752 19.2394 23.7752 21.1367C23.7752 21.4058 23.8069 21.6686 23.8682 21.92C20.885 21.7765 18.2397 20.408 16.4693 18.3284C16.1598 18.8352 15.9837 19.4258 15.9837 20.0561C15.9837 21.2488 16.618 22.3011 17.5803 22.9168C16.992 22.8979 16.4387 22.743 15.9542 22.4854V22.5283C15.9542 24.1932 17.1921 25.5826 18.8335 25.8989C18.5328 25.9764 18.2157 26.0193 17.8876 26.0193C17.6558 26.0193 17.4316 25.9973 17.2118 25.9554C17.6689 27.3219 18.9943 28.3156 20.5646 28.3428C19.3366 29.2642 17.7881 29.8119 16.1062 29.8119C15.8165 29.8119 15.531 29.7951 15.25 29.7647C16.8389 30.7417 18.7253 31.3113 20.7527 31.3113C27.3566 31.3113 30.9665 26.0738 30.9665 21.5315L30.9544 21.0865C31.6597 20.6048 32.2699 19.9996 32.75 19.3106Z" fill="#086CF9"/>
</svg>
